<?xml version="1.0" encoding="utf-8"?><!-- Uploaded to: SVG Repo, www.svgrepo.com, Generator: SVG Repo Mixer Tools -->
<svg fill="#000000" width="800px" height="800px" viewBox="0 0 50 50" xmlns="http://www.w3.org/2000/svg">
  <path id="Baseball" d="M89.862,125.614c-.022.209-.068.411-.094.619-.085.65-.174,1.3-.308,1.933-.04.189-.1.371-.144.558-.153.647-.313,1.291-.516,1.917-.044.138-.1.27-.149.407-.229.67-.474,1.332-.757,1.975-.037.083-.081.162-.118.245-.313.69-.649,1.368-1.022,2.023-.02.036-.044.07-.064.105-.4.7-.83,1.374-1.293,2.025l-.008.011a25.313,25.313,0,0,1-3.266,3.748c-.463.436-.933.865-1.428,1.265a25.189,25.189,0,0,1-2.835,1.963c-.227.137-.448.283-.679.413-.361.2-.737.383-1.109.568-.31.154-.619.31-.937.451-.351.156-.71.3-1.069.438s-.727.277-1.1.4q-.511.173-1.032.324c-.416.12-.837.226-1.262.324-.322.075-.642.152-.968.214-.5.094-1,.165-1.5.229-.271.035-.539.081-.813.107-.788.075-1.584.121-2.391.121s-1.627-.046-2.426-.122c-.3-.029-.583-.082-.876-.12-.492-.065-.985-.131-1.468-.224-.363-.071-.718-.162-1.076-.249-.393-.094-.786-.189-1.172-.3s-.79-.25-1.18-.387c-.322-.112-.644-.227-.96-.351q-.635-.251-1.251-.536-.388-.178-.768-.37c-.443-.223-.88-.454-1.307-.7-.195-.113-.385-.232-.577-.35-.462-.285-.919-.576-1.361-.889-.122-.086-.238-.179-.358-.268-.49-.361-.974-.73-1.436-1.124-.49-.419-.974-.845-1.43-1.3a25.053,25.053,0,0,1-5.337-7.866c-.013-.031-.031-.06-.044-.091-.284-.668-.528-1.357-.754-2.053-.027-.084-.065-.164-.091-.249-.2-.648-.362-1.313-.511-1.982-.032-.141-.078-.276-.108-.419-.132-.643-.219-1.3-.3-1.963-.022-.176-.062-.347-.08-.524a25.34,25.34,0,0,1,0-5.119c.018-.177.058-.348.08-.524.081-.66.168-1.319.3-1.963.029-.142.076-.277.108-.419.149-.669.309-1.335.511-1.982.026-.085.064-.165.091-.249.226-.7.47-1.385.754-2.053.013-.031.031-.06.044-.091a25.05,25.05,0,0,1,5.337-7.866c.456-.455.94-.881,1.43-1.3.462-.395.946-.763,1.436-1.124.12-.088.236-.181.358-.268.441-.313.9-.6,1.361-.889.192-.118.382-.237.577-.35.427-.248.865-.479,1.307-.7q.381-.191.768-.37.617-.284,1.251-.536c.316-.125.638-.239.96-.351.39-.136.781-.27,1.18-.386s.779-.207,1.172-.3c.357-.086.713-.178,1.076-.248.483-.093.975-.159,1.468-.224.292-.039.58-.092.876-.12C63.373,98.046,64.181,98,65,98s1.634.045,2.436.123c.312.03.616.087.925.129.477.064.954.126,1.422.217.393.077.776.177,1.162.272.363.089.728.174,1.084.279.439.13.87.279,1.3.431.28.1.56.2.835.306.473.188.938.392,1.4.607.207.1.413.195.616.3.5.251.99.517,1.47.8.139.082.276.167.413.251.52.321,1.03.654,1.524,1.011.073.053.143.108.216.161.538.4,1.064.81,1.568,1.248s.974.86,1.43,1.322a25.124,25.124,0,0,1,4.235,5.731l.012.024q.559,1.042,1.022,2.14c.034.08.057.165.09.246.27.663.522,1.337.736,2.027.061.2.1.405.156.605.165.584.329,1.168.451,1.768.077.379.117.771.176,1.156.068.435.153.865.2,1.307a25.044,25.044,0,0,1-.009,5.155Zm-40.02-18.533a21.939,21.939,0,0,0,0,31.838c.268-.245.527-.508.779-.781l-1.439-.958c-.244-.162-.237-.508.015-.773a.748.748,0,0,1,.9-.185l1.375.915a18.841,18.841,0,0,0,1.406-2.108l-1.56-.283a.5.5,0,0,1-.315-.712.725.725,0,0,1,.742-.52l1.78.323a21.977,21.977,0,0,0,1.053-2.5l-1.266.091c-.3.021-.518-.252-.5-.609a.706.706,0,0,1,.576-.686l1.6-.115a24.978,24.978,0,0,0,.6-2.628l-1.25.09c-.3.021-.518-.251-.5-.609a.706.706,0,0,1,.576-.686l1.377-.1c.091-.787.15-1.589.171-2.4l-1.448.486a.525.525,0,0,1-.644-.465.688.688,0,0,1,.372-.806l1.72-.577c-.021-.814-.093-1.607-.189-2.388l-1.379.311c-.285.064-.525-.225-.536-.647a.855.855,0,0,1,.5-.879l1.193-.269c-.14-.767-.3-1.522-.5-2.253l-1.458.5a.521.521,0,0,1-.65-.46.706.706,0,0,1,.389-.814l1.363-.465a22.133,22.133,0,0,0-.969-2.451l-.7.678a.71.71,0,0,1-.958-.087.637.637,0,0,1-.1-.914l1.061-1.025c-.261-.459-.535-.9-.825-1.324l-1.02,1.021a.676.676,0,0,1-.935-.088.659.659,0,0,1-.1-.924l1.173-1.174A15.22,15.22,0,0,0,49.842,107.081ZM65,101a21.894,21.894,0,0,0-13.764,4.852,17.629,17.629,0,0,1,1.44,1.513l1.93-.375a.71.71,0,0,1,.743.516.519.519,0,0,1-.329.724l-1.47.286a21.179,21.179,0,0,1,1.442,2.321l1.772-.344a.71.71,0,0,1,.743.516.519.519,0,0,1-.329.725l-1.578.306a24.4,24.4,0,0,1,1.108,2.884l1.653-.239a.919.919,0,0,1,.88.631c.152.4,0,.758-.329.806l-1.783.258c.195.759.352,1.54.483,2.333l1.661.1a.691.691,0,0,1,.579.683.531.531,0,0,1-.513.618l-1.543-.092c.088.759.153,1.528.172,2.315l1.67.56a.688.688,0,0,1,.372.806.525.525,0,0,1-.644.465l-1.4-.47c-.023.895-.093,1.773-.2,2.636a.39.39,0,0,1,.079.027l1.778,1.162a.677.677,0,0,1,.141.871.536.536,0,0,1-.747.29l-1.476-.964a26.292,26.292,0,0,1-.623,2.657l1.675,1.095a.677.677,0,0,1,.141.871.536.536,0,0,1-.747.29l-1.466-.958a23.7,23.7,0,0,1-1.21,2.856l1.371,1a.876.876,0,0,1,.153,1.045c-.18.385-.541.54-.806.348l-1.445-1.051a21.34,21.34,0,0,1-1.409,2.106l1.211.792a.677.677,0,0,1,.141.871.536.536,0,0,1-.747.29l-1.434-.938a16,16,0,0,1-1.114,1.161,21.919,21.919,0,0,0,27.088.329,18.2,18.2,0,0,1-1.507-1.741l-1.407.274a.709.709,0,0,1-.741-.516A.52.52,0,0,1,75,137.77l1-.195a22,22,0,0,1-1.329-2.342l-1.411.275a.709.709,0,0,1-.741-.516.52.52,0,0,1,.328-.724l1.263-.246a25.356,25.356,0,0,1-1.016-2.913l-1.428.207a.917.917,0,0,1-.877-.631c-.152-.4,0-.758.328-.806l1.6-.232c-.176-.771-.315-1.563-.429-2.367l-1.529-.091a.691.691,0,0,1-.577-.683.531.531,0,0,1,.512-.618l1.442.086c-.071-.764-.121-1.536-.125-2.326l-1.615-.543a.689.689,0,0,1-.371-.806.524.524,0,0,1,.642-.465l1.393.469c.037-.891.119-1.765.235-2.623a.4.4,0,0,1-.115-.039L70.4,118.477a.679.679,0,0,1-.141-.871.534.534,0,0,1,.745-.29l1.522,1a26.912,26.912,0,0,1,.645-2.641l-1.745-1.144a.679.679,0,0,1-.141-.871.534.534,0,0,1,.745-.29l1.547,1.014a23.942,23.942,0,0,1,1.222-2.838l-1.467-1.07a.878.878,0,0,1-.152-1.045c.18-.384.54-.54.8-.348l1.55,1.131a21.155,21.155,0,0,1,1.424-2.1l-1.335-.875a.679.679,0,0,1-.141-.871.534.534,0,0,1,.745-.29L77.8,107.1a15.547,15.547,0,0,1,1.114-1.141A21.9,21.9,0,0,0,65,101Zm15.268,6.181c-.266.236-.523.49-.774.755l1.325.884c.243.162.237.508-.015.773a.745.745,0,0,1-.9.185l-1.275-.851a18.449,18.449,0,0,0-1.4,2.061l1.461.266a.5.5,0,0,1,.314.712.723.723,0,0,1-.74.52l-1.695-.309a22.076,22.076,0,0,0-1.071,2.482l1.2-.087c.3-.021.517.251.495.609a.705.705,0,0,1-.575.686l-1.549.111a25.608,25.608,0,0,0-.635,2.63l1.238-.089c.3-.021.517.251.495.609a.705.705,0,0,1-.575.686l-1.382.1c-.1.791-.175,1.6-.21,2.42l1.492-.5a.524.524,0,0,1,.642.465.689.689,0,0,1-.371.806l-1.807.608c.006.813.062,1.606.141,2.388l1.513-.342c.284-.064.523.225.534.647a.856.856,0,0,1-.494.879l-1.362.308c.123.779.269,1.546.452,2.289l1.675-.573a.519.519,0,0,1,.648.46.706.706,0,0,1-.388.814l-1.608.549a23.064,23.064,0,0,0,.95,2.622l.964-.934a.707.707,0,0,1,.955.087.638.638,0,0,1,.1.914l-1.352,1.311c.251.472.515.928.794,1.363l1.34-1.345a.673.673,0,0,1,.932.088.66.66,0,0,1,.1.924l-1.526,1.532a15.546,15.546,0,0,0,1.4,1.612,21.937,21.937,0,0,0,.535-32.124Z" transform="translate(-40 -98)"/>
</svg>