<?xml version="1.0" encoding="UTF-8"?>
<svg id="Layer_1" data-name="Layer 1" xmlns="http://www.w3.org/2000/svg" viewBox="0 0 65.01 115.39">
  <defs>
    <style>
      .cls-1 {
        fill: none;
      }
    </style>
  </defs>
  <path class="cls-1" d="M32.51,49.26c4.47,0,8.14,3.5,8.42,7.9l22.97-.02V1.12h-4.17v8.09c0,15.01-12.22,27.23-27.23,27.23S5.27,24.23,5.27,9.21V1.12H1.12v56.07l22.97-.02c.27-4.41,3.94-7.91,8.42-7.91Z"/>
  <path class="cls-1" d="M39.8,24.37h-14.17c.29,3.66,3.35,6.55,7.08,6.55s6.8-2.89,7.08-6.55Z"/>
  <path class="cls-1" d="M25.64,23.25h14.16c-.29-3.66-3.35-6.55-7.08-6.55s-6.79,2.89-7.08,6.55Z"/>
  <path class="cls-1" d="M32.5,35.32c14.4,0,26.11-11.71,26.11-26.11V1.12h-17.66v22.69c0,4.54-3.69,8.23-8.23,8.23s-8.23-3.69-8.23-8.23V1.12H6.39v8.09c0,14.4,11.71,26.11,26.11,26.11Z"/>
  <path class="cls-1" d="M32.72,15.58c3.03,0,5.68,1.64,7.11,4.08V1.12h-14.21v18.55c1.43-2.44,4.08-4.08,7.1-4.08Z"/>
  <path class="cls-1" d="M32.51,50.38c-3.86,0-7.03,3-7.3,6.79h14.59c-.28-3.8-3.44-6.79-7.3-6.79Z"/>
  <path class="cls-1" d="M40.92,58.28c-.3,4.38-3.96,7.86-8.42,7.86s-8.11-3.47-8.42-7.85l-22.97.02v55.97h4.15v-8.09c0-15.01,12.22-27.23,27.23-27.23s27.23,12.22,27.23,27.23v8.09h4.17v-56.02l-22.97.02Z"/>
  <path class="cls-1" d="M25.64,91.03h14.17c-.29-3.66-3.35-6.55-7.08-6.55s-6.8,2.89-7.08,6.55Z"/>
  <path class="cls-1" d="M32.5,80.07c-14.4,0-26.11,11.71-26.11,26.11v8.09h18.11v-22.69c0-4.54,3.69-8.23,8.23-8.23s8.23,3.69,8.23,8.23v22.69h17.66v-8.09c0-14.4-11.71-26.11-26.11-26.11Z"/>
  <path class="cls-1" d="M32.51,65.02c3.84,0,7-2.97,7.29-6.74h-14.59c.3,3.77,3.46,6.74,7.29,6.74Z"/>
  <path class="cls-1" d="M39.8,92.15h-14.16c.29,3.66,3.35,6.55,7.08,6.55s6.79-2.89,7.08-6.55Z"/>
  <path class="cls-1" d="M32.72,99.81c-3.03,0-5.68-1.64-7.1-4.08v18.55h14.21v-18.55c-1.43,2.44-4.08,4.08-7.1,4.08Z"/>
  <path d="M65.01,0H0v115.39h65.01V0h0ZM25.21,57.17c.27-3.79,3.44-6.79,7.3-6.79s7.02,3,7.3,6.78h-14.59ZM39.83,1.12v18.55c-1.43-2.44-4.08-4.08-7.11-4.08s-5.68,1.64-7.1,4.08V1.12h14.21ZM39.8,23.25h-14.16c.29-3.66,3.35-6.55,7.08-6.55s6.79,2.89,7.08,6.55ZM24.49,1.12v22.69c0,4.54,3.69,8.23,8.23,8.23s8.23-3.69,8.23-8.23V1.12h17.66v8.09c0,14.4-11.71,26.11-26.11,26.11S6.39,23.61,6.39,9.21V1.12h18.11ZM25.64,24.37h14.17c-.29,3.66-3.35,6.55-7.08,6.55s-6.8-2.89-7.08-6.55ZM1.12,1.12h4.15v8.09c0,15.01,12.22,27.23,27.23,27.23s27.23-12.22,27.23-27.23V1.12h4.17v56.02l-22.97.02c-.28-4.4-3.95-7.9-8.42-7.9s-8.15,3.5-8.42,7.91l-22.97.02V1.12h0ZM39.8,58.28c-.3,3.77-3.45,6.74-7.29,6.74s-6.99-2.97-7.29-6.73h14.59ZM25.62,114.27v-18.55c1.43,2.44,4.08,4.08,7.1,4.08s5.68-1.64,7.11-4.08v18.55s-14.21,0-14.21,0ZM25.64,92.15h14.16c-.29,3.66-3.35,6.55-7.08,6.55s-6.79-2.89-7.08-6.55ZM40.95,114.27v-22.69c0-4.54-3.69-8.23-8.23-8.23s-8.23,3.69-8.23,8.23v22.69H6.39v-8.09c0-14.4,11.71-26.11,26.11-26.11s26.11,11.71,26.11,26.11v8.09h-17.66ZM39.8,91.03h-14.17c.29-3.66,3.35-6.55,7.08-6.55s6.8,2.89,7.08,6.55ZM59.73,114.27v-8.09c0-15.01-12.22-27.23-27.23-27.23s-27.23,12.22-27.23,27.23v8.09H1.12v-55.97l22.97-.02c.31,4.38,3.96,7.85,8.42,7.85s8.12-3.48,8.42-7.86l22.97-.02v56.02h-4.17Z"/>
</svg>