<?xml version="1.0" encoding="UTF-8"?>
<svg id="Layer_2" data-name="Layer 2" xmlns="http://www.w3.org/2000/svg" viewBox="0 0 580.4 346.11">
  <g id="Layer_2-2" data-name="Layer 2">
    <path d="M1.15,269.32c41.55-50.99,86.63-99.68,130.08-149.29,27.3-31.17,56.1-70.63,85.81-98.42,30.91-28.91,110.81-28.18,142.69-1.56,23.54,19.66,47.34,53.04,68.3,76.52,49.99,56,101.91,110.56,150.66,167.5,3.69,8.9,1.27,17.24-5.87,23.58-6.31,5.6-39.83,15.18-49.98,18.27-174,52.86-308.42,54.93-483.13-1.73-17.47-5.67-45.76-9.91-38.57-34.86ZM230.43,37.32c-.57,2.27,2.13,5.03,3.83,6.33,21.08,16.2,65.1,17.04,89.63,8.98,7.32-2.41,30.39-11.83,18.24-21.13-20.61-15.78-66.3-16.51-90.14-8.18-5.07,1.77-20.25,8.76-21.56,14Z"/>
  </g>
</svg>