<?xml version="1.0" encoding="UTF-8"?>
<svg id="Layer_1" xmlns="http://www.w3.org/2000/svg" version="1.1" viewBox="0 0 800 800">
  <!-- Generator: Adobe Illustrator 29.1.0, SVG Export Plug-In . SVG Version: 2.1.0 Build 142)  -->
  <g id="Layer_2-2">
    <path d="M1.6,556.2c57.3-70.3,119.4-137.4,179.3-205.8,37.6-43,77.3-97.4,118.3-135.7,42.6-39.8,152.7-38.8,196.7-2.2,32.4,27.1,65.3,73.1,94.1,105.5,68.9,77.2,140.5,152.4,207.7,230.9,5.1,12.3,1.8,23.8-8.1,32.5-8.7,7.7-54.9,20.9-68.9,25.2-239.8,72.9-425.1,75.7-665.9-2.4-24.1-7.8-63.1-13.7-53.2-48h0ZM317.6,236.4c-.8,3.1,2.9,6.9,5.3,8.7,29.1,22.3,89.7,23.5,123.5,12.4,10.1-3.3,41.9-16.3,25.1-29.1-28.4-21.8-91.4-22.8-124.2-11.3-7,2.4-27.9,12.1-29.7,19.3h0Z"/>
  </g>
</svg>