<?xml version="1.0" encoding="iso-8859-1"?>
<!-- Uploaded to: SVG Repo, www.svgrepo.com, Generator: SVG Repo Mixer Tools -->
<svg fill="#000000" height="800px" width="800px" version="1.1" id="Capa_1" xmlns="http://www.w3.org/2000/svg" xmlns:xlink="http://www.w3.org/1999/xlink" 
	 viewBox="0 0 290 290" xml:space="preserve">
<path color-rendering="auto" image-rendering="auto" shape-rendering="auto" color-interpolation="sRGB" d="M45,0
	c-2.761,0-5,2.239-5,5v280c0,2.761,2.239,5,5,5h200c2.761,0,5-2.239,5-5V5c0-2.761-2.239-5-5-5L45,0L45,0z M50,10h50v15
	c0,2.761,2.239,5,5,5h80c2.761,0,5-2.239,5-5V10h50v129.963h-50.285c-2.5-22.452-21.612-40-44.715-40
	c-23.103,0-42.213,17.548-44.713,40H50V10z M110,10h70v10h-70V10z M145,109.963c17.69,0,32.229,12.997,34.643,30h-69.283
	C112.773,122.96,127.31,109.963,145,109.963z M50,149.963h50.287c2.5,22.453,21.61,40,44.713,40s42.215-17.547,44.715-40H240V280
	h-50v-15c0-2.761-2.239-5-5-5h-80c-2.761,0-5,2.239-5,5v15H50V149.963L50,149.963z M110.359,149.963h69.283
	c-2.413,17.003-16.952,30-34.643,30C127.31,179.963,112.773,166.966,110.359,149.963z M110,270h70v10h-70C110,280,110,270,110,270z"
	/>
</svg>