<?xml version="1.0" encoding="UTF-8"?>
<svg id="Layer_1" xmlns="http://www.w3.org/2000/svg" version="1.1" viewBox="0 0 301 301">
  <!-- Generator: Adobe Illustrator 29.1.0, SVG Export Plug-In . SVG Version: 2.1.0 Build 142)  -->
  <path d="M69.7,277.9h169.8V23H69.7v254.9ZM231.1,195.7v74H78.1v-74h153ZM231.1,113.5v32.9h-14.3v8.3h14.3v32.9H78.1v-32.9h14.3v-8.3h-14.3v-32.9h153ZM231.1,31.3v74H78.1V31.3h153Z"/>
  <rect x="107.6" y="141.2" width="8.3" height="18.6" transform="translate(-38.7 262.2) rotate(-90)"/>
  <rect x="136.1" y="141.2" width="8.3" height="18.6" transform="translate(-10.2 290.7) rotate(-90)"/>
  <rect x="164.7" y="141.2" width="8.3" height="18.6" transform="translate(18.4 319.3) rotate(-90)"/>
  <rect x="193.3" y="141.2" width="8.3" height="18.6" transform="translate(47 347.9) rotate(-90)"/>
</svg>